<mxfile host="app.diagrams.net" modified="2024-03-30T20:51:29.543Z" agent="Mozilla/5.0 (Windows NT 10.0; Win64; x64) AppleWebKit/537.36 (KHTML, like Gecko) Chrome/123.0.0.0 Safari/537.36" etag="BlL7w-kGnOwFsLfG36Qj" version="24.2.1" type="google">
  <diagram name="Pagina-1" id="4J2ZoCuPeB4mUkh7oTKh">
    <mxGraphModel grid="1" page="1" gridSize="10" guides="1" tooltips="1" connect="1" arrows="1" fold="1" pageScale="1" pageWidth="827" pageHeight="1169" math="0" shadow="0">
      <root>
        <mxCell id="0" />
        <mxCell id="1" parent="0" />
        <mxCell id="pzBk2zxjVONhJiB37iQP-14" value="" style="rounded=0;whiteSpace=wrap;html=1;fillColor=#f5f5f5;fontColor=#333333;strokeColor=#666666;" vertex="1" parent="1">
          <mxGeometry x="5" y="1020" width="1895" height="320" as="geometry" />
        </mxCell>
        <mxCell id="Jd-yWU7Di4oTttXMz_rG-32" value="" style="rounded=0;whiteSpace=wrap;html=1;fillColor=#f5f5f5;fontColor=#333333;strokeColor=#666666;" vertex="1" parent="1">
          <mxGeometry x="5" y="380" width="2165" height="520" as="geometry" />
        </mxCell>
        <mxCell id="_l6m1l7kdeyDk1vFTxfX-22" value="" style="rounded=0;whiteSpace=wrap;html=1;fillColor=#d5e8d4;strokeColor=#82b366;" vertex="1" parent="1">
          <mxGeometry x="10" y="80" width="990" height="180" as="geometry" />
        </mxCell>
        <mxCell id="_l6m1l7kdeyDk1vFTxfX-1" value="&lt;b&gt;TRAINING&amp;nbsp;&lt;/b&gt;" style="text;html=1;align=center;verticalAlign=middle;whiteSpace=wrap;rounded=0;fillColor=#d5e8d4;strokeColor=#82b366;" vertex="1" parent="1">
          <mxGeometry x="370" y="20" width="340" height="40" as="geometry" />
        </mxCell>
        <mxCell id="_l6m1l7kdeyDk1vFTxfX-20" value="" style="edgeStyle=orthogonalEdgeStyle;rounded=0;orthogonalLoop=1;jettySize=auto;html=1;" edge="1" parent="1" source="_l6m1l7kdeyDk1vFTxfX-2" target="_l6m1l7kdeyDk1vFTxfX-4">
          <mxGeometry relative="1" as="geometry" />
        </mxCell>
        <mxCell id="_l6m1l7kdeyDk1vFTxfX-2" value="" style="shape=cylinder3;whiteSpace=wrap;html=1;boundedLbl=1;backgroundOutline=1;size=15;" vertex="1" parent="1">
          <mxGeometry x="70" y="90" width="60" height="80" as="geometry" />
        </mxCell>
        <mxCell id="_l6m1l7kdeyDk1vFTxfX-3" value="&lt;span style=&quot;color: rgb(0, 0, 0); font-family: Helvetica; font-size: 12px; font-style: normal; font-variant-ligatures: normal; font-variant-caps: normal; font-weight: 400; letter-spacing: normal; orphans: 2; text-indent: 0px; text-transform: none; widows: 2; word-spacing: 0px; -webkit-text-stroke-width: 0px; white-space: normal; background-color: rgb(251, 251, 251); text-decoration-thickness: initial; text-decoration-style: initial; text-decoration-color: initial; float: none; display: inline !important;&quot;&gt;CUSTOMER_PROJECT_&lt;br&gt;SRC_{2022/2023/2024}.TRAINING&lt;/span&gt;" style="text;whiteSpace=wrap;html=1;align=center;" vertex="1" parent="1">
          <mxGeometry y="170" width="210" height="40" as="geometry" />
        </mxCell>
        <mxCell id="_l6m1l7kdeyDk1vFTxfX-19" value="" style="edgeStyle=orthogonalEdgeStyle;rounded=0;orthogonalLoop=1;jettySize=auto;html=1;" edge="1" parent="1" source="_l6m1l7kdeyDk1vFTxfX-4" target="_l6m1l7kdeyDk1vFTxfX-5">
          <mxGeometry relative="1" as="geometry" />
        </mxCell>
        <mxCell id="_l6m1l7kdeyDk1vFTxfX-4" value="Cancellare tutte le righe della tabella di destinazione, che hanno YEAR_COD=$AnnoCaricamento" style="rounded=0;whiteSpace=wrap;html=1;" vertex="1" parent="1">
          <mxGeometry x="210" y="100" width="216" height="60" as="geometry" />
        </mxCell>
        <mxCell id="_l6m1l7kdeyDk1vFTxfX-7" value="" style="shape=cylinder3;whiteSpace=wrap;html=1;boundedLbl=1;backgroundOutline=1;size=15;" vertex="1" parent="1">
          <mxGeometry x="880" y="90" width="60" height="80" as="geometry" />
        </mxCell>
        <mxCell id="_l6m1l7kdeyDk1vFTxfX-8" value="&lt;span style=&quot;color: rgb(0, 0, 0); font-family: Helvetica; font-size: 12px; font-style: normal; font-variant-ligatures: normal; font-variant-caps: normal; font-weight: 400; letter-spacing: normal; orphans: 2; text-align: center; text-indent: 0px; text-transform: none; widows: 2; word-spacing: 0px; -webkit-text-stroke-width: 0px; white-space: normal; background-color: rgb(251, 251, 251); text-decoration-thickness: initial; text-decoration-style: initial; text-decoration-color: initial; display: inline !important; float: none;&quot;&gt;GRM4_ODS_SRC_TRAINING&lt;/span&gt;" style="text;whiteSpace=wrap;html=1;" vertex="1" parent="1">
          <mxGeometry x="820" y="175" width="170" height="30" as="geometry" />
        </mxCell>
        <mxCell id="_l6m1l7kdeyDk1vFTxfX-13" value="FULL-REFRESH PARTIZIONATO" style="ellipse;shape=cloud;whiteSpace=wrap;html=1;" vertex="1" parent="1">
          <mxGeometry x="350" y="175" width="300" height="85" as="geometry" />
        </mxCell>
        <mxCell id="_l6m1l7kdeyDk1vFTxfX-14" value="" style="shape=flexArrow;endArrow=classic;html=1;rounded=0;exitX=1;exitY=0.5;exitDx=0;exitDy=0;exitPerimeter=0;" edge="1" parent="1" target="_l6m1l7kdeyDk1vFTxfX-5">
          <mxGeometry width="50" height="50" relative="1" as="geometry">
            <mxPoint x="520" y="129.5" as="sourcePoint" />
            <mxPoint x="570" y="130" as="targetPoint" />
          </mxGeometry>
        </mxCell>
        <mxCell id="6__dkwjPqKxZirQCWJrv-19" style="edgeStyle=orthogonalEdgeStyle;rounded=0;orthogonalLoop=1;jettySize=auto;html=1;exitX=1;exitY=0.5;exitDx=0;exitDy=0;" edge="1" parent="1" source="_l6m1l7kdeyDk1vFTxfX-5" target="_l6m1l7kdeyDk1vFTxfX-7">
          <mxGeometry relative="1" as="geometry" />
        </mxCell>
        <mxCell id="_l6m1l7kdeyDk1vFTxfX-5" value="Caricare tutte le righe con YEAR_COD=$AnnoCaricamento" style="rounded=0;whiteSpace=wrap;html=1;" vertex="1" parent="1">
          <mxGeometry x="520" y="100" width="190" height="60" as="geometry" />
        </mxCell>
        <mxCell id="6__dkwjPqKxZirQCWJrv-6" value="&lt;span style=&quot;color: rgb(0, 0, 0); font-family: Helvetica; font-size: 12px; font-style: normal; font-variant-ligatures: normal; font-variant-caps: normal; font-weight: 400; letter-spacing: normal; orphans: 2; text-align: center; text-indent: 0px; text-transform: none; widows: 2; word-spacing: 0px; -webkit-text-stroke-width: 0px; white-space: normal; background-color: rgb(251, 251, 251); text-decoration-thickness: initial; text-decoration-style: initial; text-decoration-color: initial; display: inline !important; float: none;&quot;&gt;GRM4_ODS_SRC_TRAINING&lt;/span&gt;" style="text;whiteSpace=wrap;html=1;" vertex="1" parent="1">
          <mxGeometry x="10" y="490" width="170" height="30" as="geometry" />
        </mxCell>
        <mxCell id="6__dkwjPqKxZirQCWJrv-8" value="&lt;b&gt;TRAINING&amp;nbsp;&lt;/b&gt;" style="text;html=1;align=center;verticalAlign=middle;whiteSpace=wrap;rounded=0;fillColor=#f5f5f5;strokeColor=#666666;fontColor=#333333;" vertex="1" parent="1">
          <mxGeometry x="700" y="310" width="780" height="50" as="geometry" />
        </mxCell>
        <mxCell id="Jd-yWU7Di4oTttXMz_rG-9" value="" style="edgeStyle=orthogonalEdgeStyle;rounded=0;orthogonalLoop=1;jettySize=auto;html=1;" edge="1" parent="1" source="Jd-yWU7Di4oTttXMz_rG-6" target="Jd-yWU7Di4oTttXMz_rG-8">
          <mxGeometry relative="1" as="geometry" />
        </mxCell>
        <mxCell id="Jd-yWU7Di4oTttXMz_rG-6" value="Aggiunta SESSION_TAG" style="rounded=0;whiteSpace=wrap;html=1;" vertex="1" parent="1">
          <mxGeometry x="220" y="420" width="120" height="60" as="geometry" />
        </mxCell>
        <mxCell id="6__dkwjPqKxZirQCWJrv-16" style="edgeStyle=orthogonalEdgeStyle;rounded=0;orthogonalLoop=1;jettySize=auto;html=1;exitX=1;exitY=0.5;exitDx=0;exitDy=0;" edge="1" parent="1" source="Jd-yWU7Di4oTttXMz_rG-8" target="Jd-yWU7Di4oTttXMz_rG-15">
          <mxGeometry relative="1" as="geometry" />
        </mxCell>
        <mxCell id="Jd-yWU7Di4oTttXMz_rG-8" value="Scarto righe con YEAR_COD != $AnnoCaricamento" style="rounded=0;whiteSpace=wrap;html=1;" vertex="1" parent="1">
          <mxGeometry x="450" y="420" width="140" height="60" as="geometry" />
        </mxCell>
        <mxCell id="Jd-yWU7Di4oTttXMz_rG-21" style="edgeStyle=orthogonalEdgeStyle;rounded=0;orthogonalLoop=1;jettySize=auto;html=1;exitX=1;exitY=0.5;exitDx=0;exitDy=0;exitPerimeter=0;entryX=0.5;entryY=1;entryDx=0;entryDy=0;" edge="1" parent="1" source="Jd-yWU7Di4oTttXMz_rG-14" target="Jd-yWU7Di4oTttXMz_rG-15">
          <mxGeometry relative="1" as="geometry" />
        </mxCell>
        <mxCell id="Jd-yWU7Di4oTttXMz_rG-14" value="" style="shape=cylinder3;whiteSpace=wrap;html=1;boundedLbl=1;backgroundOutline=1;size=15;" vertex="1" parent="1">
          <mxGeometry x="40" y="560" width="60" height="80" as="geometry" />
        </mxCell>
        <mxCell id="Jd-yWU7Di4oTttXMz_rG-17" value="" style="edgeStyle=orthogonalEdgeStyle;rounded=0;orthogonalLoop=1;jettySize=auto;html=1;" edge="1" parent="1" source="Jd-yWU7Di4oTttXMz_rG-13" target="Jd-yWU7Di4oTttXMz_rG-6">
          <mxGeometry relative="1" as="geometry" />
        </mxCell>
        <mxCell id="Jd-yWU7Di4oTttXMz_rG-13" value="" style="shape=cylinder3;whiteSpace=wrap;html=1;boundedLbl=1;backgroundOutline=1;size=15;" vertex="1" parent="1">
          <mxGeometry x="40" y="410" width="60" height="80" as="geometry" />
        </mxCell>
        <mxCell id="Jd-yWU7Di4oTttXMz_rG-23" value="" style="edgeStyle=orthogonalEdgeStyle;rounded=0;orthogonalLoop=1;jettySize=auto;html=1;" edge="1" parent="1" source="Jd-yWU7Di4oTttXMz_rG-15" target="Jd-yWU7Di4oTttXMz_rG-22">
          <mxGeometry relative="1" as="geometry" />
        </mxCell>
        <mxCell id="Jd-yWU7Di4oTttXMz_rG-15" value="check FK con DIM_FORNITORI (TRAINING.VENDOR_COD= FORNITORI.VENDOR_COD e YEAR_COD=$AnnoCaricamento)&amp;nbsp; e inserimento valore fittizio in caso di check fallito" style="whiteSpace=wrap;html=1;rounded=0;" vertex="1" parent="1">
          <mxGeometry x="800" y="395" width="230" height="110" as="geometry" />
        </mxCell>
        <mxCell id="Jd-yWU7Di4oTttXMz_rG-24" style="edgeStyle=orthogonalEdgeStyle;rounded=0;orthogonalLoop=1;jettySize=auto;html=1;entryX=0.5;entryY=1;entryDx=0;entryDy=0;" edge="1" parent="1" source="6__dkwjPqKxZirQCWJrv-15" target="Jd-yWU7Di4oTttXMz_rG-22">
          <mxGeometry relative="1" as="geometry" />
        </mxCell>
        <mxCell id="6__dkwjPqKxZirQCWJrv-15" value="" style="shape=cylinder3;whiteSpace=wrap;html=1;boundedLbl=1;backgroundOutline=1;size=15;" vertex="1" parent="1">
          <mxGeometry x="40" y="700" width="60" height="80" as="geometry" />
        </mxCell>
        <mxCell id="Jd-yWU7Di4oTttXMz_rG-18" value="&lt;span style=&quot;color: rgb(0, 0, 0); font-family: Helvetica; font-size: 12px; font-style: normal; font-variant-ligatures: normal; font-variant-caps: normal; font-weight: 400; letter-spacing: normal; orphans: 2; text-align: center; text-indent: 0px; text-transform: none; widows: 2; word-spacing: 0px; -webkit-text-stroke-width: 0px; white-space: normal; background-color: rgb(251, 251, 251); text-decoration-thickness: initial; text-decoration-style: initial; text-decoration-color: initial; display: inline !important; float: none;&quot;&gt;GRM4_DIM_FORNITORI_DWA&lt;/span&gt;" style="text;whiteSpace=wrap;html=1;" vertex="1" parent="1">
          <mxGeometry x="10" y="640" width="200" height="40" as="geometry" />
        </mxCell>
        <mxCell id="Jd-yWU7Di4oTttXMz_rG-20" value="&lt;span style=&quot;color: rgb(0, 0, 0); font-family: Helvetica; font-size: 12px; font-style: normal; font-variant-ligatures: normal; font-variant-caps: normal; font-weight: 400; letter-spacing: normal; orphans: 2; text-align: center; text-indent: 0px; text-transform: none; widows: 2; word-spacing: 0px; -webkit-text-stroke-width: 0px; white-space: normal; background-color: rgb(251, 251, 251); text-decoration-thickness: initial; text-decoration-style: initial; text-decoration-color: initial; display: inline !important; float: none;&quot;&gt;GRM4_DIM_COMPANY_DWA&lt;/span&gt;" style="text;whiteSpace=wrap;html=1;" vertex="1" parent="1">
          <mxGeometry x="10" y="780" width="200" height="40" as="geometry" />
        </mxCell>
        <mxCell id="Jd-yWU7Di4oTttXMz_rG-26" value="" style="edgeStyle=orthogonalEdgeStyle;rounded=0;orthogonalLoop=1;jettySize=auto;html=1;" edge="1" parent="1" source="Jd-yWU7Di4oTttXMz_rG-22" target="Jd-yWU7Di4oTttXMz_rG-25">
          <mxGeometry relative="1" as="geometry" />
        </mxCell>
        <mxCell id="Jd-yWU7Di4oTttXMz_rG-22" value="check FK con DIM_COMPANY (TRAINING.COMPANY_COD = COMPANY.COMPANY_COD e YEAR_COD=$AnnoCaricamento) e inserimento valore fittizio in caso di check fallito" style="rounded=0;whiteSpace=wrap;html=1;" vertex="1" parent="1">
          <mxGeometry x="1190" y="395" width="250" height="110" as="geometry" />
        </mxCell>
        <mxCell id="Jd-yWU7Di4oTttXMz_rG-28" value="" style="edgeStyle=orthogonalEdgeStyle;rounded=0;orthogonalLoop=1;jettySize=auto;html=1;" edge="1" parent="1" source="Jd-yWU7Di4oTttXMz_rG-25" target="Jd-yWU7Di4oTttXMz_rG-27">
          <mxGeometry relative="1" as="geometry" />
        </mxCell>
        <mxCell id="Jd-yWU7Di4oTttXMz_rG-25" value="Eliminare dalla tabella destinazione tutte le righe con YEAR_COD=$AnnoCaricamento" style="rounded=0;whiteSpace=wrap;html=1;" vertex="1" parent="1">
          <mxGeometry x="1550" y="420" width="220" height="60" as="geometry" />
        </mxCell>
        <mxCell id="Jd-yWU7Di4oTttXMz_rG-30" value="" style="edgeStyle=orthogonalEdgeStyle;rounded=0;orthogonalLoop=1;jettySize=auto;html=1;" edge="1" parent="1" source="Jd-yWU7Di4oTttXMz_rG-27" target="Jd-yWU7Di4oTttXMz_rG-29">
          <mxGeometry relative="1" as="geometry" />
        </mxCell>
        <mxCell id="Jd-yWU7Di4oTttXMz_rG-27" value="Inserimento righe" style="rounded=0;whiteSpace=wrap;html=1;" vertex="1" parent="1">
          <mxGeometry x="1840" y="420" width="120" height="60" as="geometry" />
        </mxCell>
        <mxCell id="Jd-yWU7Di4oTttXMz_rG-29" value="" style="shape=cylinder3;whiteSpace=wrap;html=1;boundedLbl=1;backgroundOutline=1;size=15;" vertex="1" parent="1">
          <mxGeometry x="2038" y="410" width="60" height="80" as="geometry" />
        </mxCell>
        <mxCell id="Jd-yWU7Di4oTttXMz_rG-31" value="&lt;span style=&quot;color: rgb(0, 0, 0); font-family: Helvetica; font-size: 12px; font-style: normal; font-variant-ligatures: normal; font-variant-caps: normal; font-weight: 400; letter-spacing: normal; orphans: 2; text-align: center; text-indent: 0px; text-transform: none; widows: 2; word-spacing: 0px; -webkit-text-stroke-width: 0px; white-space: normal; background-color: rgb(251, 251, 251); text-decoration-thickness: initial; text-decoration-style: initial; text-decoration-color: initial; display: inline !important; float: none;&quot;&gt;GRM4_WT_TRAINING_DWA&lt;/span&gt;" style="text;whiteSpace=wrap;html=1;" vertex="1" parent="1">
          <mxGeometry x="1998" y="490" width="140" height="40" as="geometry" />
        </mxCell>
        <mxCell id="Jd-yWU7Di4oTttXMz_rG-33" value="FULL-REFRESH PARTIZIONATO" style="ellipse;shape=cloud;whiteSpace=wrap;html=1;" vertex="1" parent="1">
          <mxGeometry x="1440" y="670" width="320" height="130" as="geometry" />
        </mxCell>
        <mxCell id="pzBk2zxjVONhJiB37iQP-5" value="" style="edgeStyle=orthogonalEdgeStyle;rounded=0;orthogonalLoop=1;jettySize=auto;html=1;" edge="1" parent="1" source="HBc3QUe5TI2HvfTCMw40-1" target="pzBk2zxjVONhJiB37iQP-4">
          <mxGeometry relative="1" as="geometry" />
        </mxCell>
        <mxCell id="HBc3QUe5TI2HvfTCMw40-1" value="" style="shape=cylinder3;whiteSpace=wrap;html=1;boundedLbl=1;backgroundOutline=1;size=15;" vertex="1" parent="1">
          <mxGeometry x="45" y="1110" width="60" height="80" as="geometry" />
        </mxCell>
        <mxCell id="HBc3QUe5TI2HvfTCMw40-2" value="&lt;span style=&quot;color: rgb(0, 0, 0); font-family: Helvetica; font-size: 12px; font-style: normal; font-variant-ligatures: normal; font-variant-caps: normal; font-weight: 400; letter-spacing: normal; orphans: 2; text-align: center; text-indent: 0px; text-transform: none; widows: 2; word-spacing: 0px; -webkit-text-stroke-width: 0px; white-space: normal; background-color: rgb(251, 251, 251); text-decoration-thickness: initial; text-decoration-style: initial; text-decoration-color: initial; display: inline !important; float: none;&quot;&gt;GRM4_WT_TRAINING_DWA&lt;/span&gt;" style="text;whiteSpace=wrap;html=1;" vertex="1" parent="1">
          <mxGeometry x="15" y="1190" width="140" height="40" as="geometry" />
        </mxCell>
        <mxCell id="HBc3QUe5TI2HvfTCMw40-5" value="&lt;b&gt;TRAINING&amp;nbsp;&lt;/b&gt;" style="text;html=1;align=center;verticalAlign=middle;whiteSpace=wrap;rounded=0;fillColor=#f5f5f5;strokeColor=#666666;fontColor=#333333;" vertex="1" parent="1">
          <mxGeometry x="575" y="950" width="710" height="50" as="geometry" />
        </mxCell>
        <mxCell id="pzBk2zxjVONhJiB37iQP-3" value="FULL-REFRESH INCREMENTALE (DELTA)" style="ellipse;shape=cloud;whiteSpace=wrap;html=1;" vertex="1" parent="1">
          <mxGeometry x="165" y="1230" width="360" height="80" as="geometry" />
        </mxCell>
        <mxCell id="pzBk2zxjVONhJiB37iQP-10" value="" style="edgeStyle=orthogonalEdgeStyle;rounded=0;orthogonalLoop=1;jettySize=auto;html=1;" edge="1" parent="1" source="pzBk2zxjVONhJiB37iQP-4" target="pzBk2zxjVONhJiB37iQP-8">
          <mxGeometry relative="1" as="geometry" />
        </mxCell>
        <mxCell id="pzBk2zxjVONhJiB37iQP-4" value="Leggo tutte le righe con SESSION_TAG = $CurrentSessionTag" style="rounded=0;whiteSpace=wrap;html=1;" vertex="1" parent="1">
          <mxGeometry x="235" y="1115" width="130" height="70" as="geometry" />
        </mxCell>
        <mxCell id="pzBk2zxjVONhJiB37iQP-9" style="edgeStyle=orthogonalEdgeStyle;rounded=0;orthogonalLoop=1;jettySize=auto;html=1;exitX=0.5;exitY=0;exitDx=0;exitDy=0;exitPerimeter=0;entryX=0.5;entryY=0;entryDx=0;entryDy=0;" edge="1" parent="1" source="pzBk2zxjVONhJiB37iQP-6" target="pzBk2zxjVONhJiB37iQP-8">
          <mxGeometry relative="1" as="geometry" />
        </mxCell>
        <mxCell id="pzBk2zxjVONhJiB37iQP-6" value="" style="shape=cylinder3;whiteSpace=wrap;html=1;boundedLbl=1;backgroundOutline=1;size=15;" vertex="1" parent="1">
          <mxGeometry x="1545" y="1110" width="60" height="80" as="geometry" />
        </mxCell>
        <mxCell id="pzBk2zxjVONhJiB37iQP-7" value="&lt;span style=&quot;color: rgb(0, 0, 0); font-family: Helvetica; font-size: 12px; font-style: normal; font-variant-ligatures: normal; font-variant-caps: normal; font-weight: 400; letter-spacing: normal; orphans: 2; text-align: center; text-indent: 0px; text-transform: none; widows: 2; word-spacing: 0px; -webkit-text-stroke-width: 0px; white-space: normal; background-color: rgb(251, 251, 251); text-decoration-thickness: initial; text-decoration-style: initial; text-decoration-color: initial; display: inline !important; float: none;&quot;&gt;GRM4_T_TRAINING_DWA&lt;/span&gt;" style="text;whiteSpace=wrap;html=1;" vertex="1" parent="1">
          <mxGeometry x="1505" y="1195" width="140" height="40" as="geometry" />
        </mxCell>
        <mxCell id="pzBk2zxjVONhJiB37iQP-12" value="" style="edgeStyle=orthogonalEdgeStyle;rounded=0;orthogonalLoop=1;jettySize=auto;html=1;" edge="1" parent="1" source="pzBk2zxjVONhJiB37iQP-8" target="pzBk2zxjVONhJiB37iQP-11">
          <mxGeometry relative="1" as="geometry" />
        </mxCell>
        <mxCell id="pzBk2zxjVONhJiB37iQP-8" value="LEFT OUTER JOIN CON TABELLA DI DESTINAZIONE (WT_TRAINING_DWA.VENDOR_COD = T_TRAINING_DWA.VENDOR_COD)" style="rounded=0;whiteSpace=wrap;html=1;" vertex="1" parent="1">
          <mxGeometry x="465" y="1120" width="330" height="60" as="geometry" />
        </mxCell>
        <mxCell id="pzBk2zxjVONhJiB37iQP-11" value="INSERIMENTO RIGHE SE T_TRAINING_DWA.VENDOR_COD E&#39; NULL" style="rounded=0;whiteSpace=wrap;html=1;" vertex="1" parent="1">
          <mxGeometry x="1015" y="1120" width="270" height="60" as="geometry" />
        </mxCell>
        <mxCell id="pzBk2zxjVONhJiB37iQP-13" style="edgeStyle=orthogonalEdgeStyle;rounded=0;orthogonalLoop=1;jettySize=auto;html=1;entryX=0;entryY=0.5;entryDx=0;entryDy=0;entryPerimeter=0;" edge="1" parent="1" source="pzBk2zxjVONhJiB37iQP-11" target="pzBk2zxjVONhJiB37iQP-6">
          <mxGeometry relative="1" as="geometry" />
        </mxCell>
      </root>
    </mxGraphModel>
  </diagram>
</mxfile>
